<svg xmlns="http://www.w3.org/2000/svg" viewBox="0 0 382.3 382.3"><rect x="21.15" y="21.15" width="340" height="340" rx="97.66" ry="97.66" style="fill:#7839b1;"/><path d="m122.33,278.15c-1.66,0-3.15-.62-4.47-1.86-1.33-1.24-1.99-2.77-1.99-4.6V110.74c0-1.82.66-3.35,1.99-4.6,1.32-1.24,2.81-1.86,4.47-1.86h33.04c2.98,0,5.13.66,6.46,1.99,1.32,1.33,2.24,2.4,2.73,3.23l51.17,82.22v-80.97c0-1.82.66-3.35,1.99-4.6,1.32-1.24,2.89-1.86,4.72-1.86h37.26c1.82,0,3.35.62,4.6,1.86s1.86,2.77,1.86,4.6v160.95c0,1.82-.62,3.35-1.86,4.6s-2.77,1.86-4.6,1.86h-32.79c-2.98,0-5.18-.7-6.58-2.11-1.41-1.4-2.36-2.44-2.86-3.1l-51.17-77.74v76.5c0,1.82-.62,3.35-1.86,4.6s-2.77,1.86-4.6,1.86h-37.51v-.02h0Z" style="fill:#fff;"/></svg>