<svg xmlns="http://www.w3.org/2000/svg" viewBox="0 0 23.56 21.76"><path d="m22.79,11.86c-.49.39-.98.78-1.48,1.17-.26.21-.55.29-.86.14-.33-.15-.51-.41-.52-.77-.01-1.01-.01-2.01,0-3.02,0-.34.18-.61.49-.76.3-.13.59-.09.85.12.61.49,1.22.97,1.83,1.45.15.12.45.3.45.69s-.51.76-.77.97Zm-2.08-1s0,0,0,0c0,.42,0,.85,0,1.27,0,.2.07.23.23.11.53-.39,1.05-.8,1.57-1.19.15-.11.14-.21,0-.32-.52-.39-1.03-.79-1.54-1.19-.06-.04-.12-.12-.2-.07-.08.05-.06.13-.06.21,0,.39,0,.79,0,1.18Z"/><path d="m.71,10.01c.5-.39,1-.78,1.49-1.19.29-.24.61-.36.96-.19.37.17.5.49.5.89,0,.92,0,1.85,0,2.77,0,.24-.06.47-.22.65-.3.35-.76.41-1.12.13-.61-.47-1.21-.96-1.81-1.44-.17-.14-.52-.37-.52-.74,0-.34.48-.7.71-.88Zm2.17.87c0-.42,0-.83,0-1.25,0-.07,0-.14-.07-.18-.07-.03-.11.02-.16.06-.52.4-1.04.8-1.56,1.21-.18.14-.18.2.01.35.51.39,1.02.78,1.53,1.17.05.04.1.1.18.07.09-.04.07-.13.07-.2,0-.41,0-.82,0-1.23Z"/><path d="m19.16,10.89c0,1.46,0,2.92,0,4.38-.01,1.59-.55,2.98-1.59,4.17-1.33,1.53-3.03,2.3-5.06,2.3-.75,0-1.5.05-2.25-.04-1.33-.16-2.5-.68-3.53-1.54-.59-.5-1.07-1.09-1.46-1.76-.09-.15-.12-.32-.03-.48.14-.26.49-.25.67.01.19.29.37.59.59.86,1.07,1.27,2.41,2,4.07,2.12.97.07,1.94.11,2.9-.05,1.82-.31,3.2-1.27,4.13-2.86.55-.94.77-1.97.77-3.05,0-1.77,0-3.54,0-5.32,0-.3,0-.3-.3-.3-1.49,0-2.98,0-4.48,0-.2,0-.3.05-.39.25-.28.6-.77.92-1.42.91-.65,0-1.14-.33-1.41-.94-.07-.16-.16-.22-.34-.22-1.51,0-3.03,0-4.54,0-.22,0-.28.08-.28.29,0,1.8,0,3.6,0,5.41,0,.32-.13.48-.38.49-.21,0-.36-.12-.4-.33,0-.06,0-.12,0-.18,0-2.83-.03-5.66.01-8.5.04-2.53,1.24-4.43,3.42-5.69C8.85.27,9.92.06,11.06.03c.84-.03,1.71-.06,2.56.08,2.77.45,4.93,2.57,5.44,5.34.06.34.1.67.1,1.02,0,1.48,0,2.95,0,4.43Zm-3.63-2.33c.87,0,1.74.01,2.61-.03.15,0,.24-.04.24-.22-.02-.73.03-1.47-.04-2.2-.25-2.94-2.71-5.3-5.86-5.31-.2,0-.28.06-.28.27,0,1.01,0,2.03,0,3.04,0,.16.05.24.2.31.63.28.94.78.94,1.47,0,.79,0,1.59,0,2.38,0,.21.06.29.28.29.64-.01,1.27,0,1.91,0Zm-10.31-.19c.37-.34.66-.67.97-.98,1.67-1.67,3.34-3.34,5.01-5.01.08-.08.18-.15.19-.27,0-.39,0-.77,0-1.16,0-.13-.09-.15-.19-.11-.06.03-.11.08-.16.12-1.9,1.89-3.79,3.79-5.69,5.68-.06.06-.13.11-.13.21,0,.49,0,.98,0,1.53Zm5.81-.99c0,.5,0,1,0,1.5,0,.5.31.82.77.82.45,0,.76-.32.76-.81,0-1,0-2,0-3,0-.47-.33-.82-.76-.82-.43,0-.77.34-.77.81,0,.5,0,1,0,1.5Zm-4.81,1.17c.49,0,.96,0,1.44,0,.09,0,.15-.07.21-.12.75-.75,1.5-1.5,2.25-2.25.09-.09.13-.18.13-.3,0-.7.33-1.19.97-1.48.06-.03.14-.04.15-.12.04-.29.02-.59.01-.89-1.73,1.73-3.44,3.44-5.16,5.16ZM9.86.94c-1.41.3-2.55,1.02-3.44,2.15-.59.76-1.13,2.02-1.04,2.32,1.48-1.47,2.97-2.96,4.48-4.47Zm.38,6.34s-.04-.01-.06-.02c-.38.38-.76.76-1.14,1.13-.03.03-.06.05-.05.09.01.05.06.04.1.04.32,0,.65,0,.97,0,.09,0,.17-.04.17-.14,0-.37,0-.74,0-1.1Z"/><path d="m5.01,17.07c-.2,0-.38-.19-.38-.38,0-.21.19-.39.4-.39.21,0,.37.17.37.38,0,.23-.16.39-.39.38Z"/></svg>